<?xml version="1.0" encoding="UTF-8" standalone="no"?>
<!DOCTYPE svg PUBLIC "-//W3C//DTD SVG 1.1//EN" "http://www.w3.org/Graphics/SVG/1.1/DTD/svg11.dtd">
<!-- Created with Vectornator (http://vectornator.io/) -->
<svg height="100%" stroke-miterlimit="10" style="fill-rule:nonzero;clip-rule:evenodd;stroke-linecap:round;stroke-linejoin:round;" version="1.1" viewBox="104.072 227.939 174.452 257.051" width="100%" xml:space="preserve" xmlns="http://www.w3.org/2000/svg" xmlns:xlink="http://www.w3.org/1999/xlink">
<defs/>
<g id="Item-백팩">
<g opacity="1">
<path d="M122.099 406.466C121.141 411.258 114.009 410.186 114.502 405.325L130.116 251.546C130.268 250.045 131.284 248.772 132.714 248.29L148.906 242.838C151.709 241.895 154.483 244.336 153.904 247.236L122.099 406.466Z" fill="#000002" fill-rule="nonzero" opacity="1" stroke="none"/>
<path d="M262.839 405.466C263.796 410.258 270.929 409.186 270.435 404.325L254.822 250.546C254.669 249.045 253.653 247.772 252.223 247.29L236.031 241.838C233.229 240.895 230.454 243.336 231.034 246.236L262.839 405.466Z" fill="#000002" fill-rule="nonzero" opacity="1" stroke="none"/>
</g>
<path d="M189.25 228.085C252.603 224.93 264.869 273.684 270.848 290.169C276.827 306.655 282.464 423.438 265.18 445.132C247.896 466.826 158.743 471.542 122.68 447.019C86.6177 422.496 113.473 303.894 116.857 288.411C120.241 272.928 125.898 231.24 189.25 228.085Z" fill="#000002" fill-opacity="0.835312" fill-rule="nonzero" opacity="1" stroke="none"/>
</g>
</svg>
