<?xml version="1.0" encoding="UTF-8" standalone="no"?>
<!DOCTYPE svg PUBLIC "-//W3C//DTD SVG 1.1//EN" "http://www.w3.org/Graphics/SVG/1.1/DTD/svg11.dtd">
<!-- Created with Vectornator (http://vectornator.io/) -->
<svg height="880.0px" stroke-miterlimit="10" style="fill-rule:nonzero;clip-rule:evenodd;stroke-linecap:round;stroke-linejoin:round;" version="1.1" viewBox="0 0 400 880" width="400.0px" xml:space="preserve" xmlns="http://www.w3.org/2000/svg" xmlns:xlink="http://www.w3.org/1999/xlink">
<defs>
<radialGradient cx="0" cy="0" gradientTransform="matrix(55.5597 0 0 55.5597 194.432 122.87)" gradientUnits="userSpaceOnUse" id="RadialGradient" r="1">
<stop offset="0" stop-color="#ececf2"/>
<stop offset="1" stop-color="#6d6d9b"/>
</radialGradient>
</defs>
<g id="Item-캡모자">
<path d="M193.117 65.5436C245.002 65.5436 251.771 112.668 252.451 115.961C253.132 119.253 252.903 122.574 252.903 122.574C252.903 122.574 232.071 116.685 193.79 116.685C155.509 116.685 135.35 123.996 135.35 123.996C135.35 123.996 133.847 122.379 134.293 118.944C136.308 103.445 140.85 65.5436 193.117 65.5436Z" fill="#6d6d9b" fill-rule="nonzero" opacity="1" stroke="none"/>
<g fill="#ffffff" opacity="1" stroke="none">
<path d="M164.715 91.6665L173.848 88.0884L173.848 89.4947L166.379 92.315L173.848 95.1431L173.848 96.5493L164.715 92.9634L164.715 91.6665Z"/>
<path d="M174.871 84.8853L176.277 84.8853L176.277 89.1665C176.611 88.7447 176.91 88.4478 177.176 88.2759C177.629 87.979 178.194 87.8306 178.871 87.8306C180.085 87.8306 180.908 88.2551 181.34 89.104C181.574 89.5676 181.692 90.2108 181.692 91.0337L181.692 96.4009L180.246 96.4009L180.246 91.1275C180.246 90.5129 180.168 90.0624 180.012 89.7759C179.757 89.3176 179.277 89.0884 178.574 89.0884C177.991 89.0884 177.462 89.2889 176.988 89.69C176.514 90.091 176.277 90.8488 176.277 91.9634L176.277 96.4009L174.871 96.4009L174.871 84.8853Z"/>
<path d="M187.254 87.8462C187.848 87.8462 188.423 87.9855 188.981 88.2642C189.538 88.5428 189.962 88.9035 190.254 89.3462C190.535 89.7681 190.723 90.2603 190.817 90.8228C190.9 91.2082 190.942 91.8228 190.942 92.6665L184.809 92.6665C184.835 93.5155 185.035 94.1965 185.41 94.7095C185.785 95.2225 186.366 95.479 187.152 95.479C187.887 95.479 188.473 95.2368 188.91 94.7525C189.16 94.4712 189.337 94.1457 189.442 93.7759L190.824 93.7759C190.788 94.0832 190.667 94.4256 190.461 94.8033C190.255 95.1809 190.025 95.4895 189.77 95.729C189.343 96.1457 188.814 96.427 188.184 96.5728C187.845 96.6561 187.462 96.6978 187.035 96.6978C185.994 96.6978 185.111 96.3189 184.387 95.5611C183.663 94.8033 183.301 93.7421 183.301 92.3775C183.301 91.0337 183.666 89.9426 184.395 89.104C185.124 88.2655 186.077 87.8462 187.254 87.8462ZM189.496 91.5493C189.439 90.94 189.306 90.453 189.098 90.0884C188.712 89.4113 188.069 89.0728 187.168 89.0728C186.522 89.0728 185.981 89.3059 185.543 89.772C185.106 90.2381 184.874 90.8306 184.848 91.5493L189.496 91.5493Z"/>
<path d="M193.746 94.1743C193.746 94.5806 193.895 94.9009 194.192 95.1353C194.488 95.3697 194.84 95.4868 195.246 95.4868C195.741 95.4868 196.22 95.3723 196.684 95.1431C197.465 94.7629 197.856 94.1405 197.856 93.2759L197.856 92.1431C197.684 92.2525 197.462 92.3436 197.192 92.4165C196.921 92.4895 196.655 92.5415 196.395 92.5728L195.543 92.6822C195.033 92.7499 194.65 92.8566 194.395 93.0025C193.962 93.2473 193.746 93.6379 193.746 94.1743ZM197.152 91.3306C197.475 91.2889 197.692 91.1535 197.801 90.9243C197.863 90.7993 197.895 90.6197 197.895 90.3853C197.895 89.9061 197.724 89.5585 197.383 89.3423C197.042 89.1262 196.554 89.0181 195.918 89.0181C195.184 89.0181 194.663 89.216 194.356 89.6118C194.184 89.8306 194.072 90.1561 194.02 90.5884L192.707 90.5884C192.733 89.5572 193.068 88.8397 193.711 88.4361C194.354 88.0324 195.1 87.8306 195.949 87.8306C196.934 87.8306 197.733 88.0181 198.348 88.3931C198.957 88.7681 199.262 89.3514 199.262 90.1431L199.262 94.9634C199.262 95.1092 199.292 95.2264 199.352 95.315C199.412 95.4035 199.538 95.4478 199.731 95.4478C199.793 95.4478 199.863 95.4439 199.942 95.4361C200.02 95.4283 200.103 95.4165 200.192 95.4009L200.192 96.44C199.973 96.5025 199.806 96.5415 199.692 96.5572C199.577 96.5728 199.421 96.5806 199.223 96.5806C198.738 96.5806 198.387 96.4087 198.168 96.065C198.054 95.8827 197.973 95.6249 197.926 95.2915C197.639 95.6665 197.228 95.9921 196.692 96.2681C196.155 96.5441 195.564 96.6822 194.918 96.6822C194.142 96.6822 193.508 96.4465 193.016 95.9751C192.524 95.5038 192.277 94.9139 192.277 94.2056C192.277 93.4296 192.52 92.828 193.004 92.4009C193.488 91.9738 194.124 91.7108 194.91 91.6118L197.152 91.3306Z"/>
<path d="M202.457 92.315C202.457 93.2108 202.647 93.9608 203.027 94.565C203.408 95.1691 204.017 95.4712 204.856 95.4712C205.507 95.4712 206.042 95.1913 206.461 94.6314C206.88 94.0715 207.09 93.2681 207.09 92.2212C207.09 91.1639 206.874 90.3814 206.442 89.8736C206.009 89.3658 205.475 89.1118 204.84 89.1118C204.132 89.1118 203.557 89.3827 203.117 89.9243C202.677 90.466 202.457 91.2629 202.457 92.315ZM204.574 87.8853C205.215 87.8853 205.751 88.0207 206.184 88.2915C206.434 88.4478 206.718 88.7212 207.035 89.1118L207.035 84.8853L208.387 84.8853L208.387 96.4009L207.121 96.4009L207.121 95.2368C206.793 95.7525 206.405 96.1249 205.957 96.354C205.509 96.5832 204.996 96.6978 204.418 96.6978C203.486 96.6978 202.679 96.3059 201.996 95.522C201.314 94.7381 200.973 93.6952 200.973 92.3931C200.973 91.1743 201.284 90.1184 201.906 89.2251C202.529 88.3319 203.418 87.8853 204.574 87.8853Z"/>
<path d="M218.785 92.979L209.652 96.5493L209.652 95.1431L217.113 92.315L209.652 89.4947L209.652 88.0884L218.785 91.6665L218.785 92.979Z"/>
</g>
<path d="M252.865 122.564C252.865 122.564 230.338 108.425 194.487 108.425C158.637 108.425 134.36 121.734 134.36 121.734C134.36 121.734 134.067 133.612 148.044 132.295C162.021 130.978 171.344 118.877 194.833 119.347C218.322 119.817 221.72 130.28 236.054 131.58C250.388 132.88 252.865 122.564 252.865 122.564Z" fill="url(#RadialGradient)" fill-rule="nonzero" opacity="1" stroke="none"/>
</g>
</svg>
