<svg width="100%" height="auto" stroke-miterlimit="10" style="fill-rule:nonzero;clip-rule:evenodd;stroke-linecap:round;stroke-linejoin:round;" version="1.1" viewBox="415.572 527.735 262.773 281.682" xml:space="preserve" xmlns="http://www.w3.org/2000/svg">
<defs/>
  <g id="Layer">
<g opacity="1">
<path d="M532.613 548.89L526.35 551.368C522.052 553.356 522.347 565.583 527.152 574.516C531.957 583.45 548.087 603.785 548.087 603.785C548.087 603.785 564.209 578.853 566.605 573.559C569.002 568.264 571.742 560.09 569.534 551.836L563.378 549.317L563.378 530.268L567.46 527.735C567.46 527.735 587.542 531.792 597.012 535.917C610.475 541.781 609.171 560.047 609.171 560.047C614.805 562.233 618.033 563.55 626.589 573.55C639.591 588.745 659.559 654.692 671.403 707.208C676.88 731.495 679.263 763.229 675.09 767.812L678.344 781.473L651.47 789.198C651.279 789.253 651.079 789.152 651.009 788.967L645.832 775.13C635.593 774.94 616.243 699.987 616.243 699.987C616.243 699.987 625.963 786.782 615.58 798.033L615.502 808.525C615.501 808.734 615.331 808.902 615.123 808.902L476.494 808.934C475.917 808.934 475.785 797.674 475.785 797.674C464.71 792.387 473.871 718.51 475.505 702.416C475.505 702.416 455.309 777.096 446.823 777.084L443.855 789.277C443.804 789.487 443.589 789.612 443.381 789.552L415.618 781.503C415.618 781.503 417.993 768.418 417.993 768.418C413.805 763.996 415.067 745.488 421.645 711.227C431.284 661.029 447.97 596.675 463.092 578.177C480.922 556.366 487.274 557.918 487.274 557.918C487.274 557.918 490.363 554.097 491.124 547.062C491.569 542.951 491.492 540.386 499.167 536.179C510.302 530.077 529.154 528.481 529.154 528.481L532.613 530.525L532.613 548.89Z" fill="#d8dce4" fill-rule="nonzero" opacity="1" stroke="none"/>
  <g opacity="1">
<path d="M497.154 719.406C497.154 732.468 497.474 744.192 494.85 756.658C493.659 762.319 488.434 774.45 488.434 779.922" fill="none" opacity="1" stroke="#9ea8b4" stroke-linecap="round" stroke-linejoin="round" stroke-width="1"/>
    <path d="M598.91 719.406C598.91 732.468 598.589 744.192 601.213 756.658C602.405 762.319 607.629 774.45 607.629 779.922" fill="none" opacity="1" stroke="#9ea8b4" stroke-linecap="round" stroke-linejoin="round" stroke-width="1"/>
    <path d="M497.154 719.406L598.91 719.406" fill="none" opacity="1" stroke="#9ea8b4" stroke-linecap="butt" stroke-linejoin="round" stroke-width="1"/>
    <path d="M488.159 779.809L607.629 779.809" fill="none" opacity="1" stroke="#9ea8b4" stroke-linecap="butt" stroke-linejoin="round" stroke-width="1"/>
    <path d="M542.329 714.46L553.48 714.46L553.48 787.311L542.329 787.311L542.329 714.46Z" fill="#d8dde4" fill-rule="nonzero" opacity="1" stroke="none"/>
</g>
  <path d="M548.087 610.344L548.087 808.917" fill="none" opacity="1" stroke="#9ea8b4" stroke-linecap="butt" stroke-linejoin="round" stroke-width="1"/>
  <g opacity="1">
<path d="M488.706 561.053C492.353 576.779 514.095 588.706 526.842 594.015C529.987 595.325 545.609 601.616 545.609 605.982" fill="none" opacity="1" stroke="#9ea8b4" stroke-linecap="round" stroke-linejoin="round" stroke-width="1"/>
    <path d="M548.784 610.183C548.784 602.793 584.875 579.956 591.31 576.273C594.253 574.589 605.709 569.003 605.709 564.838" fill="none" opacity="1" stroke="#9ea8b4" stroke-linecap="round" stroke-linejoin="round" stroke-width="1"/>
    <path d="M590.773 544.864C602.391 554.904 581.267 562.787 581.267 567.835" fill="none" opacity="1" stroke="#9ea8b4" stroke-linecap="round" stroke-linejoin="round" stroke-width="1"/>
    <path d="M521.113 537.813C488.515 537.813 523.899 570.487 523.899 574.901" fill="none" opacity="1" stroke="#9ea8b4" stroke-linecap="round" stroke-linejoin="round" stroke-width="1"/>
    <path d="M519.447 590.624L519.447 641.201" fill="none" opacity="1" stroke="#9ea8b4" stroke-linecap="butt" stroke-linejoin="round" stroke-width="1"/>
    <path d="M577.136 585.699L577.136 641.201" fill="none" opacity="1" stroke="#9ea8b4" stroke-linecap="butt" stroke-linejoin="round" stroke-width="1"/>
    <path d="M518.329 645.528C518.329 642.78 518.253 640.556 519.47 640.556C520.686 640.556 520.514 642.78 520.514 645.528C520.514 648.276 520.771 650.504 519.421 650.504C518.07 650.504 518.329 648.276 518.329 645.528Z" fill="#9ea8b4" fill-rule="nonzero" opacity="1" stroke="none"/>
    <path d="M576.271 645.528C576.271 642.78 576.195 640.556 577.411 640.556C578.628 640.556 578.456 642.78 578.456 645.528C578.456 648.276 578.713 650.504 577.362 650.504C576.011 650.504 576.271 648.276 576.271 645.528Z" fill="#9ea8b4" fill-rule="nonzero" opacity="1" stroke="none"/>
</g>
</g>
</g>
</svg>
