<?xml version="1.0" encoding="UTF-8" standalone="no"?>
<!DOCTYPE svg PUBLIC "-//W3C//DTD SVG 1.1//EN" "http://www.w3.org/Graphics/SVG/1.1/DTD/svg11.dtd">
<!-- Created with Vectornator (http://vectornator.io/) -->
<svg height="880.0px" stroke-miterlimit="10" style="fill-rule:nonzero;clip-rule:evenodd;stroke-linecap:round;stroke-linejoin:round;" version="1.1" viewBox="0 0 400 880" width="400.0px" xml:space="preserve" xmlns="http://www.w3.org/2000/svg" xmlns:xlink="http://www.w3.org/1999/xlink">
<defs/>
<g id="잠옷상의">
<path d="M128 498.438C127.923 534.943 129.876 597.48 132.156 662L163.281 662.281L169.281 540.438C169.281 540.438 169.281 540.406 169.281 540.406C169.309 540.321 175.256 521.937 191.062 521.938C206.905 521.938 212.312 542.094 212.312 542.094L218.281 663.375L248.656 663.469C250.516 598.429 252.091 535.273 251.844 498.438L128 498.438Z" fill="#ffffff" fill-rule="nonzero" opacity="0" stroke="#000002" stroke-linecap="butt" stroke-linejoin="round" stroke-width="0.3"/>
<path d="M160.305 245.883L136.25 257L136.25 257.062C135.924 257.042 135.594 257.029 135.281 257.156C122.72 262.256 115.414 275.775 108.719 291.188C105.785 297.942 97.2421 333.87 88.7188 371.156L110.438 378.781L124.156 327.312C124.156 327.312 125.952 309.349 137.531 299.094C138.774 297.993 139.784 296.737 140.688 295.406L140.688 295.5L129.812 462.594C128.938 470.002 128.781 476.875 128.781 476.875C128.221 479.016 128.024 487.244 128 498.438L251.844 498.312C251.768 487.196 251.534 479.003 251 476.875C251 476.875 250.945 467.491 249.531 458.562L241.594 300.906C241.641 300.909 241.671 300.935 241.719 300.938C256.189 301.705 260.625 327.312 260.625 327.312L275.094 381.656L297.188 376.188C288.255 336.978 279.104 298.262 276.031 291.188C269.336 275.775 262.061 262.256 249.5 257.156C249.361 257.1 249.183 257.172 249.031 257.156L249.062 257.031L224.73 245.867C222.907 248.978 221.689 263.874 193 263.874C164.311 263.874 162.29 248.821 160.305 245.883Z" fill="#ffffff" fill-rule="nonzero" opacity="0" stroke="#000002" stroke-linecap="butt" stroke-linejoin="round" stroke-width="0.3"/>
<g opacity="1">
<path d="M168.625 242.006C168.625 242.006 144.841 245.697 124.531 264.506C111.239 276.816 99.358 308.937 93.5879 333.337C90.5418 346.218 89.1987 356.947 90.25 361.475C93.2927 374.577 122.219 378.506 122.219 378.506L116.531 495.6C116.531 495.6 261.877 480.369 262.875 454.35C263.35 441.964 262.003 418.256 260.5 396.787C260.528 397.147 260.75 399.787 260.75 399.787L297.562 377.537C297.562 377.537 296.292 374.395 295.938 368.943C294.555 347.709 289.7 293.708 275.688 276.475C263.367 261.322 237.781 251.412 237.781 251.412L224.438 259.975C224.437 259.975 224.868 261.831 223.719 262.568C222.57 263.306 219.844 262.912 219.844 262.912L217.844 264.193C217.844 264.193 217.262 265.387 216.781 265.6C216.387 265.774 216.09 264.97 215.781 265.1C215.373 265.271 214.976 265.436 214.562 265.6C213.616 265.974 214.312 273.006 214.312 273.006C214.313 273.006 209.432 267.367 208.281 267.662C204.838 268.544 201.306 269.007 197.844 268.85C178.76 267.983 168.625 242.006 168.625 242.006ZM101.698 337.194C105.485 337.434 106.671 338.819 106.758 339.255C107.976 345.398 109.894 346.663 110.638 348.161C111.947 350.798 106.667 352.097 106.021 352.113C105.728 352.12 101.977 352.193 101.977 352.193L102.177 354.743C102.177 354.743 104.032 356.243 104.032 356.883C104.031 358.633 102.271 359.192 101.974 359.193C101.201 359.195 98.8806 358.95 98.9278 356.607C98.9618 354.92 102.198 354.761 102.198 354.761C102.198 354.761 102.062 352.303 101.972 352.202C101.028 351.145 94.8145 345.876 94.8145 344.576C94.8145 340.882 97.9103 336.953 101.698 337.194Z" fill="#e32424" fill-rule="nonzero" opacity="1" stroke="none"/>
</g>
<path d="M263.869 387.906C263.869 370.051 293.776 369.717 293.776 354.082" fill="none" opacity="1" stroke="#ff5f5f" stroke-linecap="round" stroke-linejoin="round" stroke-width="1"/>
<path d="M237.76 435.99C227.099 443.07 217.567 451.095 205.963 456.714C201.743 458.758 165.742 466.176 157.407 466.176" fill="none" opacity="1" stroke="#ff5f5f" stroke-linecap="round" stroke-linejoin="round" stroke-width="1"/>
<path d="M172.491 471.37C200.836 471.37 215.372 471.398 231.859 447.571C232.938 446.012 239.809 439.498 239.809 437.71" fill="none" opacity="1" stroke="#ff5f5f" stroke-linecap="round" stroke-linejoin="round" stroke-width="1"/>
<g opacity="1">
<path d="M171.317 310.783C172.151 310.783 172.801 310.712 173.264 310.57C173.993 310.347 174.357 309.947 174.357 309.368C174.357 308.785 173.97 308.392 173.195 308.19C172.758 308.076 172.108 308.02 171.247 308.02L167.719 308.02L167.719 310.783L171.317 310.783ZM171.982 314.9C173.195 314.9 174.059 314.685 174.576 314.256C174.901 313.985 175.063 313.657 175.063 313.272C175.063 312.625 174.589 312.183 173.642 311.949C173.138 311.823 172.473 311.76 171.645 311.76L167.719 311.76L167.719 314.9L171.982 314.9ZM165.782 307.012L172.052 307.012C173.761 307.012 174.977 307.323 175.699 307.947C176.123 308.315 176.335 308.74 176.335 309.222C176.335 309.785 176.073 310.246 175.55 310.607C175.278 310.797 174.887 310.971 174.377 311.129C175.126 311.303 175.686 311.499 176.057 311.718C176.712 312.107 177.04 312.643 177.04 313.327C177.04 313.902 176.746 314.422 176.156 314.888C175.275 315.584 173.874 315.932 171.953 315.932L165.782 315.932L165.782 307.012Z" fill="#ffffff" fill-rule="nonzero" opacity="1" stroke="none"/>
<path d="M183.599 309.283C184.354 309.283 185.086 309.391 185.795 309.608C186.504 309.824 187.044 310.105 187.415 310.449C187.772 310.777 188.011 311.159 188.13 311.596C188.236 311.896 188.289 312.374 188.289 313.03L180.488 313.03C180.522 313.689 180.777 314.219 181.254 314.618C181.731 315.016 182.469 315.216 183.47 315.216C184.404 315.216 185.149 315.027 185.705 314.651C186.023 314.432 186.249 314.179 186.381 313.892L188.14 313.892C188.094 314.131 187.94 314.397 187.678 314.69C187.416 314.984 187.123 315.224 186.798 315.41C186.255 315.734 185.583 315.952 184.781 316.066C184.351 316.131 183.864 316.163 183.321 316.163C181.996 316.163 180.873 315.868 179.952 315.279C179.031 314.69 178.571 313.866 178.571 312.805C178.571 311.76 179.034 310.912 179.962 310.26C180.889 309.609 182.102 309.283 183.599 309.283ZM186.451 312.161C186.378 311.688 186.209 311.309 185.944 311.026C185.454 310.499 184.636 310.236 183.489 310.236C182.668 310.236 181.979 310.417 181.423 310.78C180.866 311.142 180.571 311.602 180.538 312.161L186.451 312.161Z" fill="#ffffff" fill-rule="nonzero" opacity="1" stroke="none"/>
<path d="M196.497 307.613L198.305 307.613L198.305 309.429L200.005 309.429L200.005 310.321L198.305 310.321L198.305 314.566C198.305 314.793 198.431 314.944 198.683 315.021C198.822 315.066 199.054 315.088 199.379 315.088C199.465 315.088 199.558 315.087 199.657 315.085C199.756 315.083 199.872 315.078 200.005 315.07L200.005 315.932C199.799 315.969 199.586 315.995 199.364 316.011C199.142 316.027 198.902 316.035 198.643 316.035C197.809 316.035 197.242 315.905 196.944 315.644C196.646 315.383 196.497 315.044 196.497 314.627L196.497 310.321L195.056 310.321L195.056 309.429L196.497 309.429L196.497 307.613Z" fill="#ffffff" fill-rule="nonzero" opacity="1" stroke="none"/>
<path d="M201.793 306.981L203.582 306.981L203.582 310.309C204.006 309.981 204.387 309.75 204.725 309.617C205.301 309.386 206.02 309.271 206.881 309.271C208.425 309.271 209.471 309.601 210.021 310.26C210.319 310.621 210.468 311.121 210.468 311.76L210.468 315.932L208.63 315.932L208.63 311.833C208.63 311.356 208.531 311.005 208.332 310.783C208.007 310.426 207.398 310.248 206.503 310.248C205.762 310.248 205.089 310.404 204.486 310.716C203.883 311.028 203.582 311.617 203.582 312.483L203.582 315.932L201.793 315.932L201.793 306.981Z" fill="#ffffff" fill-rule="nonzero" opacity="1" stroke="none"/>
<path d="M217.543 309.283C218.299 309.283 219.031 309.391 219.74 309.608C220.448 309.824 220.988 310.105 221.359 310.449C221.717 310.777 221.955 311.159 222.075 311.596C222.181 311.896 222.234 312.374 222.234 313.03L214.433 313.03C214.466 313.689 214.721 314.219 215.198 314.618C215.675 315.016 216.414 315.216 217.414 315.216C218.348 315.216 219.094 315.027 219.65 314.651C219.968 314.432 220.193 314.179 220.326 313.892L222.085 313.892C222.038 314.131 221.884 314.397 221.623 314.69C221.361 314.984 221.068 315.224 220.743 315.41C220.2 315.734 219.528 315.952 218.726 316.066C218.295 316.131 217.808 316.163 217.265 316.163C215.94 316.163 214.817 315.868 213.897 315.279C212.976 314.69 212.515 313.866 212.515 312.805C212.515 311.76 212.979 310.912 213.907 310.26C214.834 309.609 216.046 309.283 217.543 309.283ZM220.395 312.161C220.322 311.688 220.154 311.309 219.889 311.026C219.398 310.499 218.58 310.236 217.434 310.236C216.613 310.236 215.924 310.417 215.367 310.78C214.811 311.142 214.516 311.602 214.483 312.161L220.395 312.161Z" fill="#ffffff" fill-rule="nonzero" opacity="1" stroke="none"/>
<path d="M172.009 341.814C173.291 341.814 174.305 341.343 175.051 340.402C175.798 339.461 176.171 337.763 176.171 335.309C176.171 332.67 175.649 330.872 174.605 329.914C174.046 329.409 173.3 329.157 172.366 329.157L165.69 329.157L165.69 341.814L172.009 341.814ZM162.957 324.846L172.297 324.846C173.836 324.846 175.104 325.258 176.102 326.081C177.998 327.661 178.946 330.578 178.946 334.83C178.946 337.049 178.696 338.864 178.197 340.276C177.698 341.688 177 342.823 176.102 343.68C176.89 344.268 177.483 345.041 177.881 345.999C178.036 346.371 175.513 352.782 179.376 355.535C185.465 359.874 198.948 361.158 199.206 361.364L198.929 363.903C198.929 363.903 183.224 362.415 177.184 358.201C171.174 354.009 174.828 347.091 174.371 346.68C173.849 346.226 173.03 345.999 171.913 345.999L165.69 345.999L165.69 361.883L162.957 361.883L162.957 324.846Z" fill="#ffffff" fill-rule="nonzero" opacity="1" stroke="none"/>
<path d="M186.946 331.385C187.877 331.385 188.779 331.717 189.652 332.381C190.525 333.045 191.191 333.904 191.648 334.959C192.089 335.964 192.382 337.137 192.529 338.477C192.66 339.395 192.725 340.859 192.725 342.87L183.114 342.87C183.154 344.892 183.469 346.515 184.056 347.737C184.644 348.959 185.554 349.571 186.787 349.571C187.938 349.571 188.856 348.994 189.542 347.839C189.934 347.169 190.211 346.394 190.374 345.513L192.542 345.513C192.484 346.245 192.295 347.061 191.972 347.96C191.65 348.86 191.289 349.595 190.889 350.166C190.219 351.159 189.391 351.829 188.403 352.177C187.872 352.375 187.272 352.474 186.603 352.474C184.971 352.474 183.587 351.572 182.452 349.766C181.318 347.96 180.75 345.432 180.75 342.181C180.75 338.979 181.322 336.38 182.465 334.382C183.607 332.384 185.101 331.385 186.946 331.385ZM190.46 340.208C190.37 338.756 190.162 337.596 189.836 336.727C189.232 335.114 188.223 334.307 186.811 334.307C185.799 334.307 184.95 334.863 184.264 335.973C183.579 337.084 183.216 338.495 183.175 340.208L190.46 340.208Z" fill="#ffffff" fill-rule="nonzero" opacity="1" stroke="none"/>
<path d="M196.827 342.032C196.827 344.166 197.125 345.953 197.721 347.393C198.317 348.832 199.272 349.552 200.586 349.552C201.606 349.552 202.445 348.885 203.102 347.551C203.759 346.217 204.088 344.303 204.088 341.809C204.088 339.29 203.749 337.425 203.072 336.215C202.394 335.005 201.557 334.4 200.562 334.4C199.451 334.4 198.551 335.046 197.862 336.336C197.172 337.627 196.827 339.525 196.827 342.032ZM200.145 331.478C201.149 331.478 201.99 331.801 202.668 332.446C203.059 332.818 203.504 333.47 204.002 334.4L204.002 324.33L206.12 324.33L206.12 351.767L204.137 351.767L204.137 348.994C203.623 350.222 203.015 351.109 202.313 351.655C201.611 352.201 200.806 352.474 199.9 352.474C198.439 352.474 197.174 351.541 196.105 349.673C195.035 347.805 194.501 345.32 194.501 342.218C194.501 339.314 194.988 336.798 195.964 334.67C196.939 332.542 198.333 331.478 200.145 331.478Z" fill="#ffffff" fill-rule="nonzero" opacity="1" stroke="none"/>
<path d="M210.688 345.513C210.753 346.63 210.937 347.486 211.239 348.081C211.794 349.161 212.757 349.701 214.128 349.701C214.945 349.701 215.663 349.431 216.283 348.891C216.904 348.351 217.214 347.517 217.214 346.388C217.214 345.531 216.965 344.88 216.467 344.433C216.149 344.16 215.52 343.844 214.581 343.484L212.83 342.814C211.712 342.392 210.888 341.92 210.357 341.399C209.41 340.493 208.937 339.24 208.937 337.639C208.937 335.753 209.384 334.227 210.277 333.06C211.171 331.894 212.373 331.31 213.883 331.31C215.859 331.31 217.283 332.191 218.157 333.954C218.704 335.07 218.969 336.274 218.952 337.565L216.871 337.565C216.83 336.808 216.655 336.119 216.344 335.499C215.838 334.617 214.961 334.177 213.712 334.177C212.879 334.177 212.249 334.419 211.82 334.903C211.392 335.387 211.177 336.026 211.177 336.82C211.177 337.689 211.459 338.384 212.022 338.905C212.349 339.215 212.83 339.488 213.467 339.724L214.924 340.264C216.508 340.847 217.569 341.412 218.108 341.958C218.965 342.814 219.393 344.16 219.393 345.997C219.393 347.771 218.95 349.304 218.065 350.594C217.179 351.885 215.83 352.53 214.018 352.53C212.067 352.53 210.686 351.857 209.873 350.511C209.061 349.164 208.626 347.498 208.569 345.513L210.688 345.513Z" fill="#ffffff" fill-rule="nonzero" opacity="1" stroke="none"/>
<path d="M233.142 325.167L235.436 326.124L231.975 334.422L226.865 345.117L225.712 344.637L229.681 333.465L233.142 325.167ZM224.107 346.831L226.356 347.769L224.866 351.342L222.617 350.404L224.107 346.831Z" fill="#ffffff" fill-rule="nonzero" opacity="1" stroke="none"/>
</g>
<path d="M120.802 368.713C120.802 361.31 123.261 322.315 131.429 319.139C132.173 318.849 130.99 323.316 130.973 323.414C130.352 326.967 129.24 330.424 128.624 333.99C127.494 340.534 123.039 359.67 127.531 366.236C128.342 367.421 128.928 363.726 129.666 362.494C133.569 355.982 139.303 338.479 139.303 353.527C139.303 355.595 139.303 357.662 139.303 359.729" fill="none" opacity="1" stroke="#ff5f5f" stroke-linecap="round" stroke-linejoin="round" stroke-width="1"/>
<path d="M120.819 407.127L147.217 407.882L142.882 441.815L119.153 441.458L120.819 407.127Z" fill="#b01c1c" fill-rule="nonzero" opacity="1" stroke="none"/>
<path d="M266.33 267.508C266.33 267.508 275.021 273.224 279.988 283.399C284.955 293.573 287.797 307.309 287.797 307.309L262.268 308.088L266.33 267.508Z" fill="#b01c1c" fill-rule="nonzero" opacity="1" stroke="none"/>
<path d="M140.759 421.497C147.032 421.497 153.305 421.497 159.578 421.497" fill="none" opacity="1" stroke="#b01c1c" stroke-linecap="round" stroke-linejoin="round" stroke-width="1"/>
<path d="M139.002 430.186C147.497 430.186 155.991 430.186 164.485 430.186" fill="none" opacity="1" stroke="#b01c1c" stroke-linecap="round" stroke-linejoin="round" stroke-width="1"/>
<path d="M129.1 398.763C128.596 402.47 128.092 406.177 127.588 409.885" fill="none" opacity="1" stroke="#b01c1c" stroke-linecap="round" stroke-linejoin="round" stroke-width="1"/>
<path d="M139.402 389.352C138.509 396.784 136.58 404.391 135.711 411.63" fill="none" opacity="1" stroke="#b01c1c" stroke-linecap="round" stroke-linejoin="round" stroke-width="1"/>
<path d="M133.475 435.606C132.813 440.944 132.151 446.283 131.489 451.622" fill="none" opacity="1" stroke="#b01c1c" stroke-linecap="round" stroke-linejoin="round" stroke-width="1"/>
<path d="M124.334 435.919C123.672 441.258 123.01 446.597 122.347 451.936" fill="none" opacity="1" stroke="#b01c1c" stroke-linecap="round" stroke-linejoin="round" stroke-width="1"/>
<path d="M255.12 285.885C256.614 285.885 265.871 284.739 267.98 283.646" fill="none" opacity="1" stroke="#b01c1c" stroke-linecap="round" stroke-linejoin="round" stroke-width="1"/>
<path d="M251.475 296.154C255.561 296.154 259.532 294.813 263.489 293.961C264.632 293.715 265.853 293.892 266.955 293.564C267.271 293.47 268.961 293.087 268.603 293.087" fill="none" opacity="1" stroke="#b01c1c" stroke-linecap="round" stroke-linejoin="round" stroke-width="1"/>
<path d="M272.829 304.018C272.829 308.751 272.829 313.485 272.829 318.218" fill="none" opacity="1" stroke="#b01c1c" stroke-linecap="round" stroke-linejoin="round" stroke-width="1"/>
<path d="M280.486 305.83C278.988 310.119 282.216 315.938 282.216 320.507" fill="none" opacity="1" stroke="#b01c1c" stroke-linecap="round" stroke-linejoin="round" stroke-width="1"/>
</g>
</svg>
