<?xml version="1.0" encoding="UTF-8" standalone="no"?>
<!DOCTYPE svg PUBLIC "-//W3C//DTD SVG 1.1//EN" "http://www.w3.org/Graphics/SVG/1.1/DTD/svg11.dtd">
<!-- Created with Vectornator (http://vectornator.io/) -->
<svg height="880.0px" stroke-miterlimit="10" style="fill-rule:nonzero;clip-rule:evenodd;stroke-linecap:round;stroke-linejoin:round;" version="1.1" viewBox="0 0 400 880" width="400.0px" xml:space="preserve" xmlns="http://www.w3.org/2000/svg" xmlns:xlink="http://www.w3.org/1999/xlink">
<defs>
<path d="M121.448 442.396L201.325 442.396L260.105 442.396L252.504 796.629C252.504 796.629 249.35 804.892 231.172 804.892C212.995 804.892 210.798 795.011 210.798 795.011L203.796 702.199C203.206 694.369 197.029 564.86 191.316 564.74C185.327 564.615 179.794 694.259 179.345 702.481L172.882 792.095C172.882 792.095 173.907 804.062 150.996 804.062C128.086 804.062 125.361 788.858 125.361 788.858L121.448 442.396Z" id="Fill"/>
</defs>
<g id="잠옷바지">
<g opacity="1">
<use fill="#00357a" fill-rule="nonzero" opacity="1" stroke="none" xlink:href="#Fill"/>
<clipPath clip-rule="nonzero" id="ClipPath">
<use xlink:href="#Fill"/>
</clipPath>
<g clip-path="url(#ClipPath)">
<path d="M239 480.906L240.094 487.25L235.5 491.75L241.875 492.656L244.719 498.437L247.563 492.656L253.906 491.75L249.313 487.25L250.406 480.906L244.719 483.906L239 480.906ZM181.594 488.75L182.688 495.094L178.094 499.562L184.438 500.5L187.313 506.281L190.156 500.5L196.5 499.562L191.906 495.094L193 488.75L187.313 491.75L181.594 488.75ZM212.875 516.562L213.969 522.906L209.375 527.406L215.719 528.312L218.594 534.094L221.438 528.312L227.781 527.406L223.188 522.906L224.281 516.562L218.594 519.562L212.875 516.562ZM138.938 519.219L140 525.562L135.406 530.031L141.781 530.969L144.625 536.75L147.469 530.969L153.844 530.031L149.219 525.562L150.312 519.219L144.625 522.219L138.938 519.219ZM235.688 552L236.75 558.344L232.156 562.844L238.531 563.781L241.375 569.531L244.219 563.781L250.594 562.844L245.969 558.344L247.063 552L241.375 555L235.688 552ZM166.156 558.719L167.25 565.062L162.656 569.531L169.031 570.469L171.875 576.25L174.719 570.469L181.062 569.531L176.469 565.062L177.563 558.719L171.875 561.719L166.156 558.719ZM202.375 594.437L203.469 600.781L198.844 605.281L205.219 606.219L208.062 611.969L210.906 606.219L217.281 605.281L212.656 600.781L213.75 594.437L208.062 597.437L202.375 594.437ZM134.188 605.281L135.25 611.594L130.656 616.094L137.031 617.031L139.875 622.781L142.719 617.031L149.094 616.094L144.469 611.594L145.562 605.281L139.875 608.25L134.188 605.281ZM234.125 635.437L235.188 641.781L230.594 646.281L236.969 647.219L239.813 652.969L242.656 647.219L249 646.281L244.406 641.781L245.5 635.437L239.813 638.437L234.125 635.437ZM168.406 641.125L169.5 647.469L164.875 651.969L171.25 652.906L174.094 658.656L176.938 652.906L183.313 651.969L178.719 647.469L179.781 641.125L174.094 644.125L168.406 641.125ZM136.344 679.469L137.438 685.781L132.812 690.281L139.188 691.219L142.031 696.969L144.875 691.219L151.25 690.281L146.656 685.781L147.719 679.469L142.031 682.437L136.344 679.469ZM206.594 680.437L207.688 686.781L203.063 691.281L209.438 692.187L212.281 697.969L215.125 692.187L221.5 691.281L216.906 686.781L217.969 680.437L212.281 683.438L206.594 680.437ZM169 712.094L170.094 718.437L165.469 722.937L171.844 723.844L174.688 729.625L177.531 723.844L183.906 722.937L179.281 718.437L180.375 712.094L174.688 715.094L169 712.094ZM238.938 712.781L240 719.125L235.406 723.594L241.781 724.531L244.625 730.281L247.469 724.531L253.844 723.594L249.219 719.125L250.313 712.781L244.625 715.781L238.938 712.781ZM133.469 745.437L134.562 751.75L129.938 756.25L136.312 757.188L139.156 762.937L142 757.188L148.375 756.25L143.75 751.75L144.844 745.437L139.156 748.406L133.469 745.437ZM201.531 750.188L202.625 756.531L198 761L204.375 761.938L207.219 767.687L210.062 761.938L216.438 761L211.812 756.531L212.906 750.188L207.219 753.156L201.531 750.188ZM149.531 789.219L150.594 795.562L146 800.031L152.375 800.969L155.219 806.75L158.063 800.969L164.438 800.031L159.813 795.562L160.906 789.219L155.219 792.219L149.531 789.219ZM226.406 792.219L227.5 798.562L222.906 803.062L229.281 803.969L232.125 809.75L234.969 803.969L241.313 803.062L236.719 798.562L237.813 792.219L232.125 795.219L226.406 792.219Z" fill="#ffd12e" fill-rule="nonzero" opacity="1" stroke="none"/>
<path d="M106.038 452.677L108.049 446.562L114.217 444.744L109.013 440.952L109.215 434.513L103.991 438.283L97.9634 436.107L99.9084 442.236L95.9657 447.325L102.396 447.345L106.038 452.677ZM160.412 472.689L162.423 466.573L168.577 464.783L163.415 460.978L163.589 454.524L158.365 458.295L152.323 456.146L154.283 462.247L150.34 467.336L156.77 467.356L160.412 472.689ZM145.84 433.45L147.851 427.334L154.019 425.516L148.842 421.739L149.016 415.285L143.792 419.056L137.765 416.879L139.71 423.009L135.767 428.097L142.198 428.117L145.84 433.45ZM212.378 465.799L214.417 459.698L220.57 457.908L215.381 454.089L215.582 447.649L210.358 451.42L204.289 449.256L206.276 455.373L202.333 460.461L208.763 460.481L212.378 465.799ZM142.324 391.451L144.362 385.351L150.531 383.533L145.341 379.713L145.528 373.301L140.319 377.044L134.249 374.881L136.222 381.025L132.279 386.114L138.709 386.133L142.324 391.451ZM206.877 418.146L208.888 412.03L215.042 410.24L209.852 406.42L210.054 399.981L204.83 403.752L198.788 401.603L200.748 407.704L196.805 412.793L203.235 412.813L206.877 418.146ZM191.655 369.608L193.666 363.493L199.862 361.689L194.672 357.87L194.859 351.458L189.649 355.201L183.58 353.037L185.553 359.182L181.61 364.27L188.04 364.29L191.655 369.608ZM256.957 392.029L258.981 385.956L265.149 384.138L259.96 380.319L260.147 373.907L254.937 377.65L248.868 375.486L250.84 381.63L246.912 386.691L253.328 386.739L256.957 392.029ZM182.857 318.504L184.895 312.403L191.063 310.585L185.874 306.766L186.061 300.353L180.851 304.097L174.809 301.948L176.754 308.077L172.812 313.166L179.242 313.186L182.857 318.504ZM243.56 344.32L245.57 338.204L251.766 336.401L246.577 332.582L246.764 326.169L241.554 329.913L235.485 327.749L237.43 333.878L233.515 338.982L239.945 339.002L243.56 344.32ZM289.866 325.505L291.862 319.417L298.058 317.614L292.868 313.794L293.055 307.382L287.846 311.125L281.776 308.962L283.721 315.091L279.821 320.167L286.236 320.214L289.866 325.505ZM228.285 291.685L230.296 285.569L236.491 283.766L231.287 279.974L231.489 273.534L226.265 277.305L220.21 275.114L222.155 281.244L218.24 286.347L224.67 286.367L228.285 291.685ZM276.337 281.371L278.348 275.256L284.544 273.452L279.34 269.66L279.541 263.221L274.317 266.992L268.262 264.8L270.235 270.944L266.292 276.033L272.722 276.053L276.337 281.371ZM214.9 247.946L216.939 241.845L223.092 240.055L217.903 236.235L218.09 229.823L212.88 233.566L206.811 231.403L208.798 237.519L204.855 242.608L211.286 242.628L214.9 247.946ZM323.36 268.599L325.356 262.511L331.552 260.708L326.363 256.889L326.55 250.477L321.34 254.22L315.271 252.056L317.243 258.2L313.315 263.261L319.731 263.309L323.36 268.599ZM265.485 232.466L267.496 226.351L273.677 224.575L268.488 220.756L268.675 214.344L263.465 218.087L257.396 215.923L259.383 222.04L255.44 227.129L261.856 227.176L265.485 232.466ZM329.72 222.4L331.759 216.299L337.912 214.509L332.723 210.69L332.924 204.25L327.7 208.021L321.631 205.857L323.618 211.974L319.675 217.062L326.105 217.082L329.72 222.4ZM263.242 183.677L265.253 177.562L271.421 175.744L266.217 171.952L266.419 165.513L261.195 169.283L255.167 167.107L257.112 173.236L253.17 178.325L259.6 178.345L263.242 183.677Z" fill="#ffd12e" fill-rule="nonzero" opacity="1" stroke="none"/>
<path d="M218 487.969L216.156 489.812L213.531 489.812C213.531 490.687 213.96 491.483 214.687 491.969C215.415 492.455 216.348 492.554 217.156 492.219C217.964 491.884 218.548 491.17 218.719 490.312C218.889 489.455 218.618 488.587 218 487.969ZM154.375 494.844L152.531 496.687L149.906 496.687C149.906 497.562 150.335 498.389 151.062 498.875C151.79 499.361 152.723 499.46 153.531 499.125C154.339 498.79 154.923 498.077 155.094 497.219C155.264 496.361 154.993 495.462 154.375 494.844ZM180.594 525.344L178.75 527.187L176.125 527.187C176.125 528.062 176.585 528.889 177.312 529.375C178.04 529.861 178.942 529.96 179.75 529.625C180.558 529.29 181.142 528.576 181.312 527.719C181.483 526.861 181.212 525.962 180.594 525.344ZM253.188 525.344L251.344 527.187L248.719 527.187C248.719 528.062 249.148 528.889 249.875 529.375C250.602 529.861 251.536 529.929 252.344 529.594C253.152 529.259 253.736 528.545 253.906 527.687C254.077 526.83 253.806 525.962 253.188 525.344ZM110.469 538.75L108.625 540.594L106 540.594C106 541.468 106.429 542.295 107.156 542.781C107.883 543.267 108.817 543.366 109.625 543.031C110.433 542.697 111.017 541.983 111.187 541.125C111.358 540.267 111.087 539.368 110.469 538.75ZM208.562 567.781L206.719 569.656L204.094 569.656C204.094 570.531 204.523 571.327 205.25 571.812C205.977 572.298 206.911 572.397 207.719 572.062C208.527 571.728 209.111 571.014 209.281 570.156C209.452 569.299 209.181 568.4 208.562 567.781ZM136.687 569.25L134.844 571.125L132.219 571.125C132.219 572 132.648 572.795 133.375 573.281C134.102 573.767 135.036 573.866 135.844 573.531C136.652 573.197 137.236 572.483 137.406 571.625C137.577 570.767 137.306 569.868 136.687 569.25ZM177.969 600.562L176.094 602.406L173.5 602.406C173.5 603.281 173.929 604.108 174.656 604.594C175.383 605.08 176.286 605.179 177.094 604.844C177.902 604.509 178.517 603.764 178.688 602.906C178.858 602.049 178.587 601.181 177.969 600.562ZM255.625 612.531L253.781 614.375L251.156 614.375C251.156 615.25 251.585 616.045 252.312 616.531C253.04 617.017 253.973 617.116 254.781 616.781C255.589 616.447 256.173 615.733 256.344 614.875C256.514 614.017 256.243 613.15 255.625 612.531ZM133.344 643.031L131.5 644.875L128.875 644.875C128.875 645.75 129.304 646.577 130.031 647.062C130.758 647.548 131.692 647.616 132.5 647.281C133.308 646.947 133.892 646.233 134.062 645.375C134.233 644.517 133.962 643.65 133.344 643.031ZM211 654.969L209.156 656.844L206.531 656.844C206.531 657.718 206.992 658.514 207.719 659C208.446 659.486 209.348 659.585 210.156 659.25C210.964 658.915 211.548 658.202 211.719 657.344C211.889 656.486 211.618 655.587 211 654.969ZM255.25 685.344L253.406 687.219L250.781 687.219C250.781 688.093 251.21 688.889 251.938 689.375C252.665 689.861 253.598 689.96 254.406 689.625C255.214 689.29 255.798 688.577 255.969 687.719C256.139 686.861 255.868 685.962 255.25 685.344ZM177.969 690.187L176.094 692.031L173.5 692.031C173.5 692.906 173.929 693.733 174.656 694.219C175.383 694.705 176.286 694.804 177.094 694.469C177.902 694.134 178.517 693.42 178.688 692.562C178.858 691.705 178.587 690.806 177.969 690.187ZM210.625 727.812L208.781 729.656L206.156 729.656C206.156 730.531 206.617 731.358 207.344 731.844C208.071 732.33 208.973 732.429 209.781 732.094C210.589 731.759 211.173 731.045 211.344 730.187C211.514 729.33 211.243 728.431 210.625 727.812ZM133.344 732.656L131.5 734.5L128.875 734.5C128.875 735.375 129.304 736.202 130.031 736.687C130.758 737.173 131.692 737.272 132.5 736.937C133.308 736.603 133.892 735.858 134.062 735C134.233 734.142 133.962 733.275 133.344 732.656ZM175.094 750.375L173.25 752.219L170.625 752.219C170.625 753.093 171.085 753.92 171.812 754.406C172.54 754.892 173.442 754.991 174.25 754.656C175.058 754.322 175.642 753.608 175.812 752.75C175.983 751.892 175.712 750.993 175.094 750.375ZM255.25 750.375L253.406 752.219L250.781 752.219C250.781 753.093 251.21 753.92 251.938 754.406C252.665 754.892 253.598 754.991 254.406 754.656C255.214 754.322 255.798 753.608 255.969 752.75C256.139 751.892 255.868 750.993 255.25 750.375ZM130.5 792.844L128.656 794.687L126.031 794.687C126.031 795.562 126.46 796.389 127.187 796.875C127.915 797.361 128.848 797.46 129.656 797.125C130.464 796.79 131.048 796.077 131.219 795.219C131.389 794.361 131.118 793.462 130.5 792.844ZM210.625 792.844L208.781 794.687L206.156 794.687C206.156 795.562 206.617 796.389 207.344 796.875C208.071 797.361 208.973 797.46 209.781 797.125C210.589 796.79 211.173 796.077 211.344 795.219C211.514 794.361 211.243 793.462 210.625 792.844Z" fill="#ffffff" fill-rule="nonzero" opacity="1" stroke="none"/>
<path d="M195.936 157.368L194.093 159.211L191.468 159.211C191.468 160.086 191.897 160.882 192.624 161.368C193.351 161.854 194.285 161.952 195.093 161.618C195.901 161.283 196.484 160.569 196.655 159.711C196.826 158.854 196.555 157.986 195.936 157.368ZM132.311 164.243L130.468 166.086L127.843 166.086C127.843 166.961 128.272 167.788 128.999 168.274C129.726 168.76 130.66 168.859 131.468 168.524C132.276 168.189 132.86 167.475 133.03 166.618C133.201 165.76 132.93 164.861 132.311 164.243ZM158.53 194.743L156.686 196.586L154.061 196.586C154.061 197.461 154.522 198.288 155.249 198.774C155.976 199.26 156.878 199.359 157.686 199.024C158.494 198.689 159.078 197.975 159.249 197.118C159.419 196.26 159.149 195.361 158.53 194.743ZM231.124 194.743L229.28 196.586L226.655 196.586C226.655 197.461 227.084 198.288 227.811 198.774C228.539 199.26 229.472 199.327 230.28 198.993C231.088 198.658 231.672 197.944 231.843 197.086C232.013 196.229 231.742 195.361 231.124 194.743ZM88.4051 208.149L86.5614 209.993L83.9364 209.993C83.9364 210.867 84.3655 211.694 85.0926 212.18C85.8198 212.666 86.7534 212.765 87.5614 212.43C88.3693 212.096 88.9532 211.382 89.1239 210.524C89.2945 209.666 89.0235 208.767 88.4051 208.149ZM186.499 237.18L184.655 239.055L182.03 239.055C182.03 239.93 182.459 240.726 183.186 241.211C183.914 241.697 184.847 241.796 185.655 241.461C186.463 241.127 187.047 240.413 187.218 239.555C187.388 238.697 187.117 237.799 186.499 237.18ZM114.624 238.649L112.78 240.524L110.155 240.524C110.155 241.399 110.584 242.194 111.311 242.68C112.039 243.166 112.972 243.265 113.78 242.93C114.588 242.596 115.172 241.882 115.343 241.024C115.513 240.166 115.242 239.267 114.624 238.649ZM155.905 269.961L154.03 271.805L151.436 271.805C151.436 272.68 151.865 273.507 152.593 273.993C153.32 274.479 154.222 274.577 155.03 274.243C155.838 273.908 156.453 273.163 156.624 272.305C156.794 271.447 156.523 270.58 155.905 269.961ZM233.561 281.93L231.718 283.774L229.093 283.774C229.093 284.649 229.522 285.444 230.249 285.93C230.976 286.416 231.91 286.515 232.718 286.18C233.526 285.846 234.11 285.132 234.28 284.274C234.451 283.416 234.18 282.549 233.561 281.93ZM111.28 312.43L109.436 314.274L106.811 314.274C106.811 315.149 107.24 315.976 107.968 316.461C108.695 316.947 109.628 317.015 110.436 316.68C111.244 316.346 111.828 315.632 111.999 314.774C112.169 313.916 111.899 313.049 111.28 312.43ZM188.936 324.368L187.093 326.243L184.468 326.243C184.468 327.117 184.928 327.913 185.655 328.399C186.382 328.885 187.285 328.984 188.093 328.649C188.901 328.314 189.484 327.6 189.655 326.743C189.826 325.885 189.555 324.986 188.936 324.368ZM233.186 354.743L231.343 356.618L228.718 356.618C228.718 357.492 229.147 358.288 229.874 358.774C230.601 359.26 231.535 359.359 232.343 359.024C233.151 358.689 233.734 357.975 233.905 357.118C234.076 356.26 233.805 355.361 233.186 354.743ZM155.905 359.586L154.03 361.43L151.436 361.43C151.436 362.305 151.865 363.132 152.593 363.618C153.32 364.104 154.222 364.203 155.03 363.868C155.838 363.533 156.453 362.819 156.624 361.961C156.794 361.104 156.523 360.205 155.905 359.586ZM188.561 397.211L186.718 399.055L184.093 399.055C184.093 399.93 184.553 400.757 185.28 401.243C186.007 401.729 186.91 401.827 187.718 401.493C188.526 401.158 189.11 400.444 189.28 399.586C189.451 398.729 189.18 397.83 188.561 397.211ZM111.28 402.055L109.436 403.899L106.811 403.899C106.811 404.774 107.24 405.601 107.968 406.086C108.695 406.572 109.628 406.671 110.436 406.336C111.244 406.002 111.828 405.257 111.999 404.399C112.169 403.541 111.899 402.674 111.28 402.055ZM153.03 419.774L151.186 421.618L148.561 421.618C148.561 422.492 149.022 423.319 149.749 423.805C150.476 424.291 151.378 424.39 152.186 424.055C152.994 423.721 153.578 423.007 153.749 422.149C153.919 421.291 153.649 420.392 153.03 419.774ZM233.186 419.774L231.343 421.618L228.718 421.618C228.718 422.492 229.147 423.319 229.874 423.805C230.601 424.291 231.535 424.39 232.343 424.055C233.151 423.721 233.734 423.007 233.905 422.149C234.076 421.291 233.805 420.392 233.186 419.774ZM108.436 462.243L106.593 464.086L103.968 464.086C103.968 464.961 104.397 465.788 105.124 466.274C105.851 466.76 106.785 466.859 107.593 466.524C108.401 466.189 108.985 465.475 109.155 464.618C109.326 463.76 109.055 462.861 108.436 462.243ZM188.561 462.243L186.718 464.086L184.093 464.086C184.093 464.961 184.553 465.788 185.28 466.274C186.007 466.76 186.91 466.859 187.718 466.524C188.526 466.189 189.11 465.475 189.28 464.618C189.451 463.76 189.18 462.861 188.561 462.243Z" fill="#ffffff" fill-rule="nonzero" opacity="1" stroke="none"/>
</g>
</g>
</g>
</svg>
