<?xml version="1.0" encoding="UTF-8" standalone="no"?>
<!DOCTYPE svg PUBLIC "-//W3C//DTD SVG 1.1//EN" "http://www.w3.org/Graphics/SVG/1.1/DTD/svg11.dtd">
<!-- Created with Vectornator (http://vectornator.io/) -->
<svg height="100%" stroke-miterlimit="10" style="fill-rule:nonzero;clip-rule:evenodd;stroke-linecap:round;stroke-linejoin:round;" version="1.1" viewBox="406.281 409.639 282.898 743.017" width="100%" xml:space="preserve" xmlns="http://www.w3.org/2000/svg" xmlns:vectornator="http://vectornator.io" xmlns:xlink="http://www.w3.org/1999/xlink">
<defs/>
  <g id="Layer">
<g opacity="1">
<g opacity="1">
<path d="M532.613 517.735L563.378 517.735L563.378 564.325L532.613 564.325L532.613 517.735Z" fill="#3395ff" fill-rule="nonzero" opacity="1" stroke="none"/>
  <path d="M495.27 462.125C495.27 433.138 506.416 409.639 547.756 409.639C589.096 409.639 600.241 433.138 600.241 462.125C600.241 491.112 576.743 534.771 547.756 534.771C518.769 534.771 495.27 491.112 495.27 462.125Z" fill="#3395ff" fill-rule="nonzero" opacity="1" stroke="none"/>
  <path d="M608.399 483.184C610.217 475.254 607.553 467.876 602.45 466.707C597.347 465.537 591.737 471.019 589.92 478.95C588.102 486.881 590.765 494.258 595.868 495.427C600.971 496.597 606.581 491.115 608.399 483.184Z" fill="#3395ff" fill-rule="nonzero" opacity="1" stroke="none"/>
  <path d="M486.599 483.184C484.782 475.254 487.445 467.876 492.548 466.707C497.651 465.537 503.261 471.019 505.079 478.95C506.896 486.881 504.233 494.258 499.13 495.427C494.027 496.597 488.417 491.115 486.599 483.184Z" fill="#3395ff" fill-rule="nonzero" opacity="1" stroke="none"/>
</g>
  <g opacity="1">
<path d="M519.591 466.777C519.591 462.206 523.296 458.501 527.867 458.501C532.437 458.501 536.143 462.206 536.143 466.777C536.143 471.347 532.437 475.053 527.867 475.053C523.296 475.053 519.591 471.347 519.591 466.777Z" fill="#fff8f1" fill-rule="nonzero" opacity="1" stroke="none"/>
    <path d="M525.121 466.823C525.121 465.342 526.35 464.142 527.865 464.142C529.381 464.142 530.61 465.342 530.61 466.823C530.61 468.303 529.381 469.503 527.865 469.503C526.35 469.503 525.121 468.303 525.121 466.823Z" fill="#000002" fill-rule="nonzero" opacity="1" stroke="none"/>
</g>
  <g opacity="1">
<path d="M560.651 466.777C560.651 462.206 564.357 458.501 568.927 458.501C573.498 458.501 577.203 462.206 577.203 466.777C577.203 471.347 573.498 475.053 568.927 475.053C564.357 475.053 560.651 471.347 560.651 466.777Z" fill="#fff8f1" fill-rule="nonzero" opacity="1" stroke="none"/>
    <path d="M566.181 466.823C566.181 465.342 567.41 464.142 568.926 464.142C570.441 464.142 571.67 465.342 571.67 466.823C571.67 468.303 570.441 469.503 568.926 469.503C567.41 469.503 566.181 468.303 566.181 466.823Z" fill="#000002" fill-rule="nonzero" opacity="1" stroke="none"/>
</g>
  <path d="M518.947 465.734C518.947 465.734 519.644 458.19 527.92 458.19C536.197 458.19 536.944 465.734 536.944 465.734L518.947 465.734Z" fill="#3395ff" fill-rule="nonzero" opacity="0" stroke="none"/>
  <path d="M559.889 465.734C559.889 465.734 560.587 458.19 568.863 458.19C577.139 458.19 577.886 465.734 577.886 465.734L559.889 465.734Z" fill="#3395ff" fill-rule="nonzero" opacity="0" stroke="none"/>
  <path d="M547.855 447.075L547.855 461.597" fill="none" opacity="0" stroke="#007aff" stroke-linecap="butt" stroke-linejoin="round" stroke-width="1"/>
  <path d="M543.099 447.272C543.099 447.272 541.89 451.104 539.072 452.96C536.253 454.816 531.823 454.696 531.823 454.696" fill="none" opacity="0" stroke="#007aff" stroke-linecap="butt" stroke-linejoin="round" stroke-width="1"/>
  <path d="M552.534 447.272C552.534 447.272 553.742 451.104 556.561 452.96C559.38 454.816 563.809 454.696 563.809 454.696" fill="none" opacity="0" stroke="#007aff" stroke-linecap="butt" stroke-linejoin="round" stroke-width="1"/>
  <g opacity="1">
<path d="M533.602 508.404C533.602 508.404 536.227 505.447 547.277 505.447C558.327 505.447 560.897 508.404 560.897 508.404" fill="#3395ff" fill-rule="nonzero" opacity="1" stroke="#ffffff" stroke-linecap="butt" stroke-linejoin="round" stroke-width="1"/>
    <path d="M539.264 503.95C539.264 502.494 541.33 501.314 543.878 501.314C546.426 501.314 548.492 502.494 548.492 503.95C548.492 505.406 546.426 506.586 543.878 506.586C541.33 506.586 539.264 505.406 539.264 503.95Z" fill="#3395ff" fill-rule="nonzero" opacity="1" stroke="#ffffff" stroke-linecap="butt" stroke-linejoin="round" stroke-width="1"/>
    <path d="M547.491 503.95C547.491 502.494 549.557 501.314 552.105 501.314C554.653 501.314 556.719 502.494 556.719 503.95C556.719 505.406 554.653 506.586 552.105 506.586C549.557 506.586 547.491 505.406 547.491 503.95Z" fill="#3395ff" fill-rule="nonzero" opacity="1" stroke="#ffffff" stroke-linecap="butt" stroke-linejoin="round" stroke-width="1"/>
    <path d="M539.742 507.756C539.742 506.3 543.382 505.12 547.872 505.12C552.362 505.12 556.002 506.3 556.002 507.756C556.002 509.212 552.362 510.392 547.872 510.392C543.382 510.392 539.742 509.212 539.742 507.756Z" fill="#3395ff" fill-rule="nonzero" opacity="1" stroke="#ffffff" stroke-linecap="butt" stroke-linejoin="round" stroke-width="1"/>
</g>
</g>
    <g opacity="1">
<path d="M483.831 787.747C483.831 787.747 483.893 752.678 494.376 753.701C508.075 755.038 527.203 793.232 527.203 793.232L512.126 1098.63C511.946 1102.49 500.454 1107.09 493.857 1107.08L493.254 1106.97L491.617 1092.84C491.617 1092.84 479.792 803.179 483.831 787.747Z" fill="#3395ff" fill-rule="nonzero" opacity="1" stroke="none"/>
      <path d="M606.038 787.747C606.038 787.747 605.978 752.678 595.917 753.701C582.769 755.038 564.411 793.232 564.411 793.232L578.737 1083.66C579.041 1090.44 579.498 1098.1 579.32 1101.8C579.094 1106.52 600.151 1093.81 600.151 1093.81C600.151 1093.81 609.913 803.179 606.038 787.747Z" fill="#3395ff" fill-rule="nonzero" opacity="1" stroke="none"/>
      <path d="M604.542 568.011C617.103 573.111 624.391 586.645 631.086 602.057C637.782 617.47 673.012 780.389 673.012 780.389L654.844 785.319L615.659 638.183C615.659 638.183 611.245 612.552 596.774 611.785C576.84 610.728 597.85 565.294 604.542 568.011Z" fill="#3395ff" fill-rule="nonzero" opacity="1" stroke="none"/>
      <path d="M490.318 568.011C477.757 573.111 470.469 586.645 463.774 602.057C457.079 617.47 421.848 780.389 421.848 780.389L440.016 785.319L479.201 638.183C479.201 638.183 480.994 620.209 492.573 609.954C507.336 596.88 496.927 565.328 490.318 568.011Z" fill="#3395ff" fill-rule="nonzero" opacity="1" stroke="none"/>
      <path d="M491.294 567.855L532.582 548.761L563.348 549.154L604.094 567.902L596.642 611.778L605.141 780.357L567.357 852.962C567.357 852.962 561.967 832.791 546.124 832.791C530.281 832.791 524.337 851.293 524.337 851.293L484.128 784.656L495.73 606.368L491.294 567.855Z" fill="#3395ff" fill-rule="nonzero" opacity="1" stroke="none"/>
</g>
    <g opacity="1">
<path d="M491.45 1107.57C491.45 1107.57 481.244 1119.4 474.297 1129.16C470.127 1135.02 467.989 1139.06 467.989 1139.06C467.989 1139.06 462.649 1142.34 464.154 1144.98C464.788 1146.09 468.366 1143.34 469.524 1142.62C469.678 1142.52 469.743 1142.75 469.743 1142.75C469.743 1142.75 466.941 1144.32 466.123 1145.57C465.304 1146.82 466.259 1148.09 467.084 1147.75C468.715 1147.07 471.391 1144.14 471.536 1144.02C471.682 1143.9 471.7 1144.1 471.7 1144.1C471.7 1144.1 467.255 1147.48 468.492 1148.87C468.838 1149.26 469.887 1149.59 470.81 1148.37C471.932 1146.87 474.208 1144.96 474.364 1144.94C474.59 1144.92 474.542 1145.09 474.542 1145.09C474.542 1145.09 470.995 1147.72 470.582 1148.97C470.169 1150.22 472.538 1151.14 474.226 1149.39C475.329 1148.25 476.15 1146.93 477.269 1146.25C477.954 1145.84 477.651 1146.53 477.651 1146.53C477.651 1146.53 472.592 1149.66 475.292 1151.89C477.993 1154.13 482.737 1150.84 484.133 1149.83C487.623 1147.3 490.286 1144.45 492.128 1139.7C494.291 1134.12 500.773 1129.87 500.773 1129.87C508.441 1126.47 513.281 1121.49 513.63 1116.72C513.98 1111.94 513.003 1109.84 512.522 1105.07C512.04 1100.31 511.895 1090.71 511.895 1090.71L491.504 1090.04L491.45 1107.57Z" fill="#3395ff" fill-rule="nonzero" opacity="1" stroke="none"/>
      <path d="M600.193 1107.57C600.193 1107.57 610.399 1119.4 617.346 1129.16C621.516 1135.02 623.654 1139.06 623.654 1139.06C623.654 1139.06 628.994 1142.34 627.489 1144.98C626.855 1146.09 623.277 1143.34 622.119 1142.62C621.965 1142.52 621.9 1142.75 621.9 1142.75C621.9 1142.75 624.702 1144.32 625.52 1145.57C626.339 1146.82 625.384 1148.09 624.559 1147.75C622.928 1147.07 620.252 1144.14 620.107 1144.02C619.961 1143.9 619.943 1144.1 619.943 1144.1C619.943 1144.1 624.388 1147.48 623.151 1148.87C622.805 1149.26 621.756 1149.59 620.833 1148.37C619.711 1146.87 617.435 1144.96 617.279 1144.94C617.053 1144.92 617.101 1145.09 617.101 1145.09C617.101 1145.09 620.648 1147.72 621.061 1148.97C621.474 1150.22 619.105 1151.14 617.417 1149.39C616.314 1148.25 615.493 1146.93 614.374 1146.25C613.689 1145.84 613.992 1146.53 613.992 1146.53C613.992 1146.53 619.051 1149.66 616.351 1151.89C613.65 1154.13 608.906 1150.84 607.51 1149.83C604.02 1147.3 601.357 1144.45 599.515 1139.7C597.352 1134.12 590.87 1129.87 590.87 1129.87C583.202 1126.47 578.362 1121.49 578.013 1116.72C577.663 1111.94 578.64 1109.84 579.121 1105.07C579.603 1100.31 579.748 1090.71 579.748 1090.71L600.139 1090.04L600.193 1107.57Z" fill="#3395ff" fill-rule="nonzero" opacity="1" stroke="none"/>
      <path d="M601.229 1107.18L629.768 1127.37C629.768 1127.37 650.85 1132.58 637.256 1136.82C623.662 1141.07 607.083 1130.63 590.831 1129.72C574.578 1128.81 573.515 1122.77 573.875 1118.09C574.235 1113.42 578.6 1109.7 579.082 1104.93C579.564 1100.16 579.709 1090.57 579.709 1090.57C579.709 1090.57 601.179 1089.43 600.46 1089.49C600.118 1089.52 600.233 1093.37 600.358 1097.8C600.483 1102.22 601.229 1107.18 601.229 1107.18Z" fill="#3395ff" fill-rule="nonzero" opacity="0" stroke="none"/>
</g>
    <g opacity="1">
<path d="M673.261 778.982C673.261 778.982 676.331 779.394 680.241 785.658C684.151 791.922 688.902 804.038 688.902 804.038C689.294 804.818 689.381 806.577 688.413 806.984C687.445 807.391 685.029 805.666 685.029 805.666C685.029 805.666 683.272 802.755 682.008 801.509C680.744 800.263 678.598 798.411 678.076 798.82C677.554 799.228 678.718 802.104 678.969 802.957L686.426 828.29C686.426 828.29 686.701 833.908 684.511 830.773C682.322 827.638 677.147 814.535 676.558 813.544C675.969 812.553 674.477 812.13 674.64 813.299C674.804 814.468 679.428 827.128 680.136 832.514C680.845 837.9 678.992 837.724 677.474 834.844C675.957 831.963 670.039 814.981 670.062 814.902C670.062 814.902 667.993 814.243 668.176 815.503C668.358 816.763 671.828 829.316 672.091 834.27C672.354 839.223 669.226 835.317 669.226 835.317L663.512 816.144C663.512 816.144 661.489 815.401 661.486 816.096C661.483 816.792 664.582 828.324 664.492 832.191C664.402 836.058 662.042 834.391 661.127 831.564C660.212 828.736 655.643 814.244 655.643 814.244C655.643 814.244 653.44 802.277 652.919 793.446C652.398 784.615 654.455 778.89 654.455 778.89L672.502 778.258" fill="#3395ff" fill-rule="nonzero" opacity="1" stroke="none"/>
      <path d="M422.199 778.91C422.199 778.91 419.129 779.322 415.219 785.586C411.309 791.849 406.558 803.965 406.558 803.965C406.166 804.746 406.079 806.505 407.047 806.912C408.016 807.319 410.431 805.594 410.431 805.594C410.431 805.594 412.188 802.683 413.452 801.437C414.716 800.19 416.862 798.339 417.384 798.748C417.906 799.156 416.742 802.032 416.491 802.885L409.034 828.218C409.034 828.218 408.759 833.836 410.949 830.701C413.138 827.566 418.313 814.463 418.902 813.472C419.491 812.481 420.984 812.058 420.82 813.227C420.656 814.396 416.033 827.056 415.324 832.442C414.616 837.828 416.468 837.652 417.986 834.771C419.504 831.891 425.421 814.909 425.398 814.83C425.398 814.83 427.467 814.17 427.284 815.431C427.102 816.691 423.632 829.244 423.369 834.197C423.106 839.151 426.234 835.245 426.234 835.245L431.948 816.071C431.948 816.071 433.971 815.329 433.974 816.024C433.977 816.72 430.878 828.252 430.968 832.119C431.058 835.986 433.419 834.319 434.333 831.492C435.248 828.664 439.817 814.172 439.817 814.172C439.817 814.172 442.02 802.205 442.541 793.374C443.063 784.543 441.005 778.818 441.005 778.818L422.958 778.186" fill="#3395ff" fill-rule="nonzero" opacity="1" stroke="none"/>
</g>
</g>
</svg>
