<?xml version="1.0" encoding="UTF-8" standalone="no"?>
<!DOCTYPE svg PUBLIC "-//W3C//DTD SVG 1.1//EN" "http://www.w3.org/Graphics/SVG/1.1/DTD/svg11.dtd">
<!-- Created with Vectornator (http://vectornator.io/) -->
<svg height="880.0px" stroke-miterlimit="10" style="fill-rule:nonzero;clip-rule:evenodd;stroke-linecap:round;stroke-linejoin:round;" version="1.1" viewBox="0 0 400 880" width="400.0px" xml:space="preserve" xmlns="http://www.w3.org/2000/svg" xmlns:xlink="http://www.w3.org/1999/xlink">
<defs/>
<g id="Hair-shortcut">
<path d="M140.877 184.476C140.877 191.109 147.029 195.048 150.711 199.668C151.275 200.376 152.041 202.565 152.446 201.756C153.346 199.955 149.346 194.974 151.157 195.855C157.53 198.955 157.61 209.338 157.61 214.853C157.61 216.865 161.319 208.078 161.319 210.09C161.319 212.244 161.512 218.305 162.57 216.429C163.416 214.929 164.405 210.27 165.018 211.879C166.351 215.378 168.885 219.652 168.885 214.536C168.885 214.536 163.964 209.919 158.223 202.259C152.482 194.599 148.375 186.204 147.302 183.239C147.302 183.239 146.421 184.053 145.366 184.578C144.31 185.104 140.877 184.476 140.877 184.476Z" fill="#512a17" fill-rule="nonzero" opacity="1" stroke="#512a17" stroke-linecap="round" stroke-linejoin="round" stroke-width="1"/>
<path d="M244.519 184.323C244.519 190.956 238.563 195.048 234.881 199.668C234.317 200.376 233.551 202.565 233.146 201.756C232.246 199.955 236.245 194.974 234.435 195.855C228.061 198.955 227.982 209.338 227.982 214.853C227.982 216.865 224.273 208.078 224.273 210.09C224.273 212.244 224.08 218.305 223.021 216.429C222.175 214.929 221.187 210.27 220.574 211.879C219.241 215.378 216.707 219.652 216.707 214.536C216.707 214.536 221.628 209.919 227.369 202.259C233.11 194.599 237.217 186.204 238.289 183.239C238.289 183.239 239.17 184.053 240.226 184.578C241.282 185.104 244.519 184.323 244.519 184.323Z" fill="#512a17" fill-rule="nonzero" opacity="1" stroke="#512a17" stroke-linecap="round" stroke-linejoin="round" stroke-width="1"/>
<path d="M237.779 145.585C235.587 142.624 227.117 131.806 224.966 126.066C224.7 125.354 225.76 131.164 226.601 132.963C226.676 133.124 227.54 135.369 227.294 135.334C223.93 134.864 207.631 118.145 207.631 117.061C207.631 116.947 207.58 117.284 207.53 117.387C206.527 119.451 207.761 123.105 208.341 125.034C208.724 126.307 210.866 129.406 209.661 128.799C204.007 125.948 199.703 123.463 194.351 119.722C192.702 118.569 191.291 117.184 189.861 115.785C189.173 115.112 188.257 112.449 188.257 113.4C188.257 117.384 190.356 122.571 191.353 124.202C192.349 125.834 196.402 129.079 196.402 129.079C196.402 129.079 189.962 128.087 186.661 127.168C183.36 126.249 171.903 120.374 171.903 112.981L171.369 113.561C162.888 116.631 158.993 132.331 158.537 135.018C158.448 135.542 156.004 124.218 155.931 122.66C155.926 122.57 155.931 122.3 155.931 122.39C155.931 134.879 146.329 156.374 146.329 165.361C146.329 165.361 142.338 157.678 138.912 157.445C135.486 157.212 133.354 158.786 133.354 158.786C131.944 112.43 143.876 79.3656 192.386 79.3656L192.189 79.3658C240.699 79.3658 254.129 103.059 252.181 159.789C252.181 159.789 248.838 157.352 248.042 157.39C243.513 157.605 240.344 166.577 239.361 166.281C238.395 165.991 240.254 148.93 237.779 145.585Z" fill="#512a17" fill-rule="nonzero" opacity="1" stroke="#512a17" stroke-linecap="round" stroke-linejoin="round" stroke-width="1"/>
</g>
</svg>
