<svg  width="100%" height="auto" stroke-miterlimit="10" style="fill-rule:nonzero;clip-rule:evenodd;stroke-linecap:round;stroke-linejoin:round;" version="1.1" viewBox="449.293 1102.98 192.92 63.0029" xml:space="preserve" xmlns="http://www.w3.org/2000/svg">
<g>
<path d="M488.547 1110.67C491.134 1112.42 498.009 1117.56 508.097 1114.21C515.109 1111.89 516.229 1108.8 515.709 1107.62C515.598 1107.37 515.187 1106.41 514.231 1105.34C513.312 1104.31 512.409 1103.78 512.409 1103.78C512.409 1103.78 512.334 1102.99 512.349 1102.98C512.399 1102.95 514.815 1104.43 516.322 1107.17C517.828 1109.92 517.993 1111.93 517.993 1111.93C517.993 1111.93 520.738 1115.41 520.594 1118.03C520.45 1120.66 519.375 1123.77 515.229 1129.2C511.083 1134.63 507.013 1136.85 504.94 1138.34C502.866 1139.82 498.837 1136.72 498.331 1137.47C497.826 1138.22 497.911 1144.17 496.726 1146.1C495.541 1148.03 488.359 1157.66 481.21 1162.04C474.06 1166.43 470.667 1166.46 463.355 1165.42C456.043 1164.37 451.583 1157.22 451.583 1157.22C451.583 1157.22 446.62 1148.38 451.307 1139.59C455.995 1130.79 467.693 1127.25 470.711 1122.68C473.728 1118.11 483.553 1107.69 489.66 1104L491.464 1103.13L491.461 1103.88C491.461 1103.88 489.269 1105.18 488.337 1105.88C487.405 1106.58 486.717 1109.44 488.547 1110.67Z" fill="#d22534" fill-rule="nonzero"  stroke="none"/>
  <path d="M460.733 1146.65C460.733 1146 461.263 1145.48 461.916 1145.48C462.57 1145.48 463.1 1146 463.1 1146.65C463.1 1147.29 462.57 1147.82 461.916 1147.82C461.263 1147.82 460.733 1147.29 460.733 1146.65Z" fill="#ffffff" fill-rule="nonzero"  stroke="none"/>
  <path d="M461.077 1141.34C461.077 1140.69 461.607 1140.17 462.261 1140.17C462.914 1140.17 463.444 1140.69 463.444 1141.34C463.444 1141.98 462.914 1142.51 462.261 1142.51C461.607 1142.51 461.077 1141.98 461.077 1141.34Z" fill="#ffffff" fill-rule="nonzero"  stroke="none"/>
  <path d="M469.45 1137.4C469.45 1136.75 469.98 1136.23 470.634 1136.23C471.287 1136.23 471.817 1136.75 471.817 1137.4C471.817 1138.04 471.287 1138.57 470.634 1138.57C469.98 1138.57 469.45 1138.04 469.45 1137.4Z" fill="#ffffff" fill-rule="nonzero"  stroke="none"/>
  <path d="M468.675 1131.87C468.675 1131.23 469.204 1130.7 469.858 1130.7C470.511 1130.7 471.041 1131.23 471.041 1131.87C471.041 1132.52 470.511 1133.04 469.858 1133.04C469.204 1133.04 468.675 1132.52 468.675 1131.87Z" fill="#ffffff" fill-rule="nonzero"  stroke="none"/>
  <path d="M476.864 1127.9C476.864 1127.25 477.394 1126.73 478.047 1126.73C478.701 1126.73 479.23 1127.25 479.23 1127.9C479.23 1128.55 478.701 1129.07 478.047 1129.07C477.394 1129.07 476.864 1128.55 476.864 1127.9Z" fill="#ffffff" fill-rule="nonzero"  stroke="none"/>
  <path d="M465.914 1147.72C465.914 1147.08 466.444 1146.55 467.097 1146.55C467.751 1146.55 468.28 1147.08 468.28 1147.72C468.28 1148.37 467.751 1148.89 467.097 1148.89C466.444 1148.89 465.914 1148.37 465.914 1147.72Z" fill="#ffffff" fill-rule="nonzero"  stroke="none"/>
  <path d="M466.258 1142.41C466.258 1141.77 466.788 1141.24 467.441 1141.24C468.095 1141.24 468.625 1141.77 468.625 1142.41C468.625 1143.06 468.095 1143.58 467.441 1143.58C466.788 1143.58 466.258 1143.06 466.258 1142.41Z" fill="#ffffff" fill-rule="nonzero"  stroke="none"/>
  <path d="M474.631 1138.47C474.631 1137.83 475.161 1137.3 475.814 1137.3C476.468 1137.3 476.998 1137.83 476.998 1138.47C476.998 1139.12 476.468 1139.64 475.814 1139.64C475.161 1139.64 474.631 1139.12 474.631 1138.47Z" fill="#ffffff" fill-rule="nonzero"  stroke="none"/>
  <path d="M473.855 1132.95C473.855 1132.3 474.385 1131.78 475.039 1131.78C475.692 1131.78 476.222 1132.3 476.222 1132.95C476.222 1133.59 475.692 1134.11 475.039 1134.11C474.385 1134.11 473.855 1133.59 473.855 1132.95Z" fill="#ffffff" fill-rule="nonzero"  stroke="none"/>
  <path d="M482.045 1128.97C482.045 1128.33 482.574 1127.8 483.228 1127.8C483.881 1127.8 484.411 1128.33 484.411 1128.97C484.411 1129.62 483.881 1130.14 483.228 1130.14C482.574 1130.14 482.045 1129.62 482.045 1128.97Z" fill="#ffffff" fill-rule="nonzero"  stroke="none"/>
  <path d="M471.08 1148.67C471.08 1148.02 471.61 1147.5 472.263 1147.5C472.917 1147.5 473.446 1148.02 473.446 1148.67C473.446 1149.31 472.917 1149.84 472.263 1149.84C471.61 1149.84 471.08 1149.31 471.08 1148.67Z" fill="#ffffff" fill-rule="nonzero"  stroke="none"/>
  <path d="M471.424 1143.36C471.424 1142.71 471.954 1142.19 472.607 1142.19C473.261 1142.19 473.791 1142.71 473.791 1143.36C473.791 1144 473.261 1144.53 472.607 1144.53C471.954 1144.53 471.424 1144 471.424 1143.36Z" fill="#ffffff" fill-rule="nonzero"  stroke="none"/>
  <path d="M479.797 1139.42C479.797 1138.77 480.327 1138.25 480.98 1138.25C481.634 1138.25 482.164 1138.77 482.164 1139.42C482.164 1140.06 481.634 1140.59 480.98 1140.59C480.327 1140.59 479.797 1140.06 479.797 1139.42Z" fill="#ffffff" fill-rule="nonzero"  stroke="none"/>
  <path d="M479.021 1133.89C479.021 1133.25 479.551 1132.72 480.205 1132.72C480.858 1132.72 481.388 1133.25 481.388 1133.89C481.388 1134.54 480.858 1135.06 480.205 1135.06C479.551 1135.06 479.021 1134.54 479.021 1133.89Z" fill="#ffffff" fill-rule="nonzero"  stroke="none"/>
  <path d="M487.211 1129.92C487.211 1129.27 487.741 1128.75 488.394 1128.75C489.048 1128.75 489.577 1129.27 489.577 1129.92C489.577 1130.57 489.048 1131.09 488.394 1131.09C487.741 1131.09 487.211 1130.57 487.211 1129.92Z" fill="#ffffff" fill-rule="nonzero"  stroke="none"/>
  <path d="M491.464 1103.13C491.464 1103.13 487.896 1105.24 487.896 1105.24C487.896 1105.24 483.786 1108.68 490.081 1113.49C496.376 1118.3 512.2 1117.41 512.2 1117.41C512.2 1117.41 514.675 1117.09 514.72 1119.68C514.765 1122.27 512.151 1122.2 512.151 1122.2C512.151 1122.2 497.375 1123.97 487.417 1117.94C477.46 1111.91 483.802 1105.96 483.802 1105.96C483.802 1105.96 488.231 1102.52 491.464 1103.13Z" fill="#623a3a" fill-rule="nonzero"  stroke="none"/>
  <path d="M510.35 1119.85C510.35 1119.02 511.09 1118.35 512.003 1118.35C512.917 1118.35 513.657 1119.02 513.657 1119.85C513.657 1120.68 512.917 1121.36 512.003 1121.36C511.09 1121.36 510.35 1120.68 510.35 1119.85Z" fill="#d22534" fill-rule="nonzero"  stroke="none"/>
</g>
<g>
<path d="M602.959 1110.67C600.372 1112.42 593.497 1117.56 583.409 1114.21C576.397 1111.89 575.278 1108.8 575.798 1107.62C575.908 1107.37 576.319 1106.41 577.276 1105.34C578.195 1104.31 579.098 1103.78 579.098 1103.78C579.098 1103.78 579.173 1102.99 579.158 1102.98C579.108 1102.95 576.691 1104.43 575.185 1107.17C573.679 1109.92 573.513 1111.93 573.513 1111.93C573.513 1111.93 570.769 1115.41 570.913 1118.03C571.057 1120.66 572.132 1123.77 576.278 1129.2C580.424 1134.63 584.493 1136.85 586.567 1138.34C588.64 1139.82 592.67 1136.72 593.175 1137.47C593.681 1138.22 593.596 1144.17 594.781 1146.1C595.965 1148.03 603.147 1157.66 610.297 1162.04C617.446 1166.43 620.84 1166.46 628.152 1165.42C635.464 1164.37 639.924 1157.22 639.924 1157.22C639.924 1157.22 644.886 1148.38 640.199 1139.59C635.512 1130.79 623.813 1127.25 620.796 1122.68C617.778 1118.11 607.953 1107.69 601.846 1104L600.043 1103.13L600.045 1103.88C600.045 1103.88 602.237 1105.18 603.169 1105.88C604.101 1106.58 604.789 1109.44 602.959 1110.67Z" fill="#d22534" fill-rule="nonzero"  stroke="none"/>
    <path d="M630.773 1146.65C630.773 1146 630.244 1145.48 629.59 1145.48C628.937 1145.48 628.407 1146 628.407 1146.65C628.407 1147.29 628.937 1147.82 629.59 1147.82C630.244 1147.82 630.773 1147.29 630.773 1146.65Z" fill="#ffffff" fill-rule="nonzero"  stroke="none"/>
    <path d="M630.429 1141.34C630.429 1140.69 629.899 1140.17 629.246 1140.17C628.592 1140.17 628.063 1140.69 628.063 1141.34C628.063 1141.98 628.592 1142.51 629.246 1142.51C629.899 1142.51 630.429 1141.98 630.429 1141.34Z" fill="#ffffff" fill-rule="nonzero"  stroke="none"/>
    <path d="M622.056 1137.4C622.056 1136.75 621.526 1136.23 620.873 1136.23C620.219 1136.23 619.69 1136.75 619.69 1137.4C619.69 1138.04 620.219 1138.57 620.873 1138.57C621.526 1138.57 622.056 1138.04 622.056 1137.4Z" fill="#ffffff" fill-rule="nonzero"  stroke="none"/>
    <path d="M622.832 1131.87C622.832 1131.23 622.302 1130.7 621.649 1130.7C620.995 1130.7 620.465 1131.23 620.465 1131.87C620.465 1132.52 620.995 1133.04 621.649 1133.04C622.302 1133.04 622.832 1132.52 622.832 1131.87Z" fill="#ffffff" fill-rule="nonzero"  stroke="none"/>
    <path d="M614.642 1127.9C614.642 1127.25 614.113 1126.73 613.459 1126.73C612.806 1126.73 612.276 1127.25 612.276 1127.9C612.276 1128.55 612.806 1129.07 613.459 1129.07C614.113 1129.07 614.642 1128.55 614.642 1127.9Z" fill="#ffffff" fill-rule="nonzero"  stroke="none"/>
    <path d="M625.593 1147.72C625.593 1147.08 625.063 1146.55 624.409 1146.55C623.756 1146.55 623.226 1147.08 623.226 1147.72C623.226 1148.37 623.756 1148.89 624.409 1148.89C625.063 1148.89 625.593 1148.37 625.593 1147.72Z" fill="#ffffff" fill-rule="nonzero"  stroke="none"/>
    <path d="M625.248 1142.41C625.248 1141.77 624.719 1141.24 624.065 1141.24C623.412 1141.24 622.882 1141.77 622.882 1142.41C622.882 1143.06 623.412 1143.58 624.065 1143.58C624.719 1143.58 625.248 1143.06 625.248 1142.41Z" fill="#ffffff" fill-rule="nonzero"  stroke="none"/>
    <path d="M616.875 1138.47C616.875 1137.83 616.346 1137.3 615.692 1137.3C615.039 1137.3 614.509 1137.83 614.509 1138.47C614.509 1139.12 615.039 1139.64 615.692 1139.64C616.346 1139.64 616.875 1139.12 616.875 1138.47Z" fill="#ffffff" fill-rule="nonzero"  stroke="none"/>
    <path d="M617.651 1132.95C617.651 1132.3 617.121 1131.78 616.468 1131.78C615.814 1131.78 615.285 1132.3 615.285 1132.95C615.285 1133.59 615.814 1134.11 616.468 1134.11C617.121 1134.11 617.651 1133.59 617.651 1132.95Z" fill="#ffffff" fill-rule="nonzero"  stroke="none"/>
    <path d="M609.462 1128.97C609.462 1128.33 608.932 1127.8 608.278 1127.8C607.625 1127.8 607.095 1128.33 607.095 1128.97C607.095 1129.62 607.625 1130.14 608.278 1130.14C608.932 1130.14 609.462 1129.62 609.462 1128.97Z" fill="#ffffff" fill-rule="nonzero"  stroke="none"/>
    <path d="M620.426 1148.67C620.426 1148.02 619.897 1147.5 619.243 1147.5C618.59 1147.5 618.06 1148.02 618.06 1148.67C618.06 1149.31 618.59 1149.84 619.243 1149.84C619.897 1149.84 620.426 1149.31 620.426 1148.67Z" fill="#ffffff" fill-rule="nonzero"  stroke="none"/>
    <path d="M620.082 1143.36C620.082 1142.71 619.552 1142.19 618.899 1142.19C618.246 1142.19 617.716 1142.71 617.716 1143.36C617.716 1144 618.246 1144.53 618.899 1144.53C619.552 1144.53 620.082 1144 620.082 1143.36Z" fill="#ffffff" fill-rule="nonzero"  stroke="none"/>
    <path d="M611.709 1139.42C611.709 1138.77 611.179 1138.25 610.526 1138.25C609.873 1138.25 609.343 1138.77 609.343 1139.42C609.343 1140.06 609.873 1140.59 610.526 1140.59C611.179 1140.59 611.709 1140.06 611.709 1139.42Z" fill="#ffffff" fill-rule="nonzero"  stroke="none"/>
    <path d="M612.485 1133.89C612.485 1133.25 611.955 1132.72 611.302 1132.72C610.648 1132.72 610.118 1133.25 610.118 1133.89C610.118 1134.54 610.648 1135.06 611.302 1135.06C611.955 1135.06 612.485 1134.54 612.485 1133.89Z" fill="#ffffff" fill-rule="nonzero"  stroke="none"/>
    <path d="M604.296 1129.92C604.296 1129.27 603.766 1128.75 603.112 1128.75C602.459 1128.75 601.929 1129.27 601.929 1129.92C601.929 1130.57 602.459 1131.09 603.112 1131.09C603.766 1131.09 604.296 1130.57 604.296 1129.92Z" fill="#ffffff" fill-rule="nonzero"  stroke="none"/>
    <path d="M600.043 1103.13C600.043 1103.13 603.61 1105.24 603.61 1105.24C603.61 1105.24 607.72 1108.68 601.425 1113.49C595.131 1118.3 579.306 1117.41 579.306 1117.41C579.306 1117.41 576.831 1117.09 576.786 1119.68C576.741 1122.27 579.355 1122.2 579.355 1122.2C579.355 1122.2 594.132 1123.97 604.089 1117.94C614.046 1111.91 607.705 1105.96 607.705 1105.96C607.705 1105.96 603.276 1102.52 600.043 1103.13Z" fill="#623a3a" fill-rule="nonzero"  stroke="none"/>
    <path d="M581.157 1119.85C581.157 1119.02 580.416 1118.35 579.503 1118.35C578.59 1118.35 577.849 1119.02 577.849 1119.85C577.849 1120.68 578.59 1121.36 579.503 1121.36C580.416 1121.36 581.157 1120.68 581.157 1119.85Z" fill="#d22534" fill-rule="nonzero"  stroke="none"/>
</g>
</svg>
